<!DOCTYPE svg PUBLIC "-//W3C//DTD SVG 1.1//EN" "http://www.w3.org/Graphics/SVG/1.1/DTD/svg11.dtd">
<!-- Uploaded to: SVG Repo, www.svgrepo.com, Transformed by: SVG Repo Mixer Tools -->
<svg height="800px" width="800px" version="1.1" id="Layer_1" xmlns="http://www.w3.org/2000/svg" xmlns:xlink="http://www.w3.org/1999/xlink" viewBox="-49.5 -49.5 594.00 594.00" xml:space="preserve" fill="#000000">
<g id="SVGRepo_bgCarrier" stroke-width="0">
<path transform="translate(-49.5, -49.5), scale(18.5625)" d="M16,31.30906977398055C18.81051929152325,30.995542744425553,20.38131197592712,28.006590671060735,22.548959113684635,26.19037929226762C24.407419279571297,24.633227096449907,26.831860868596017,23.61215000295712,27.82572140222192,21.400626006065327C28.817507571867896,19.19371785371579,27.983370338286434,16.707421500051655,27.897253145911044,14.289433239454583C27.79927262283679,11.538347793844835,28.7568639209427,8.547769657321295,27.285109758653267,6.221396729837091C25.770403487479776,3.8271302465902957,22.84784478597013,2.7327302499938746,20.11448231394209,1.9873600887719132C17.41702154720616,1.251780088985024,14.59727233666907,1.3014086386499086,11.896583166774448,2.0250456552403815C9.149498199408796,2.761114208506206,6.404685507325777,3.9248560539859967,4.6198767696667815,6.139067087968369C2.8614058054977063,8.320603814927573,2.641789710902547,11.248586349167654,2.2279145482387985,14.019873048992782C1.811845793474473,16.805847928156933,1.0463705132688468,19.73240146270026,2.2064411520372165,22.29930725549679C3.3679357122759086,24.86936378079918,6.0782630217246965,26.222025059812736,8.43950684701467,27.76435698071804C10.818008664302205,29.31796158412377,13.1765705588112,31.62403699321436,16,31.30906977398055" fill="#7ed0ec" strokewidth="0"/>
</g>
<g id="SVGRepo_tracerCarrier" stroke-linecap="round" stroke-linejoin="round"/>
<g id="SVGRepo_iconCarrier"> <g> <path style="fill:#ffff;" d="M207.5,247.5c0-22.056,17.944-40,40-40V0C111.028,0,0,111.028,0,247.5S111.028,495,247.5,495V287.5 C225.444,287.5,207.5,269.556,207.5,247.5z M137.5,287.5c-22.056,0-40-17.944-40-40s17.944-40,40-40s40,17.944,40,40 S159.556,287.5,137.5,287.5z"/> <path style="fill:#FFffff;" d="M247.5,0v207.5c22.056,0,40,17.944,40,40s-17.944,40-40,40V495C383.972,495,495,383.972,495,247.5 S383.972,0,247.5,0z M357.5,287.5c-22.056,0-40-17.944-40-40s17.944-40,40-40s40,17.944,40,40S379.556,287.5,357.5,287.5z"/> <path style="fill:#2488FF;" d="M317.5,247.5c0,22.056,17.944,40,40,40v-80C335.444,207.5,317.5,225.444,317.5,247.5z"/> <path style="fill:#005ECE;" d="M357.5,207.5v80c22.056,0,40-17.944,40-40S379.556,207.5,357.5,207.5z"/> <path style="fill:#2488FF;" d="M207.5,247.5c0,22.056,17.944,40,40,40v-80C225.444,207.5,207.5,225.444,207.5,247.5z"/> <path style="fill:#005ECE;" d="M287.5,247.5c0-22.056-17.944-40-40-40v80C269.556,287.5,287.5,269.556,287.5,247.5z"/> <path style="fill:#2488FF;" d="M97.5,247.5c0,22.056,17.944,40,40,40v-80C115.444,207.5,97.5,225.444,97.5,247.5z"/> <path style="fill:#005ECE;" d="M137.5,207.5v80c22.056,0,40-17.944,40-40S159.556,207.5,137.5,207.5z"/> </g> </g>
</svg>