<!DOCTYPE svg PUBLIC "-//W3C//DTD SVG 1.1//EN" "http://www.w3.org/Graphics/SVG/1.1/DTD/svg11.dtd">
<!-- Uploaded to: SVG Repo, www.svgrepo.com, Transformed by: SVG Repo Mixer Tools -->
<svg height="800px" width="800px" version="1.1" id="Layer_1" xmlns="http://www.w3.org/2000/svg" xmlns:xlink="http://www.w3.org/1999/xlink" viewBox="-49.5 -49.5 594.00 594.00" xml:space="preserve" fill="#000000" transform="rotate(0)">
<g id="SVGRepo_bgCarrier" stroke-width="0">
<path transform="translate(-49.5, -49.5), scale(18.5625)" d="M16,29.920739102576462C18.17884547045913,29.626131104155117,20.055722195690425,28.457746854350802,22.02243692876772,27.474794863879858C24.02419412375163,26.474328865351318,26.533705967931116,25.985640386522544,27.697667138997836,24.074316637355345C28.86171379906871,22.162852507934925,28.17829900988012,19.7080814176827,28.11457931846269,17.470976246751125C28.0584852467328,15.501595430019433,27.93753634562355,13.576365140792113,27.345132999000505,11.6973585891527C26.728998425997165,9.743080467726921,25.959201325652053,7.8277335315582866,24.59286179333362,6.300664092941522C23.14379556908045,4.681136374356061,21.34709556997073,3.3614462270678165,19.281746251965465,2.6854320643810006C17.146298402448398,1.9864737925924392,14.83503105926885,1.8856543743582108,12.645469849078125,2.390136178328232C10.44050136459405,2.8981678668566726,8.52851278235926,4.158665563569757,6.760210280245159,5.570433418117407C4.929670198376644,7.031890177327625,2.951237422531514,8.54668363459769,2.168737029861509,10.754493858742807C1.3897422000690494,12.952413202787508,2.2329449885463855,15.322837011009126,2.4819782769749192,17.641385006851294C2.7342141313109627,19.989749509608124,2.48216726695322,22.471892321437156,3.6479252323439155,24.526021609030593C4.844510685477377,26.634470615909944,6.835821865057385,28.257510471418612,9.057504008227365,29.227820945432356C11.220189091887551,30.172364698065927,13.661330363813518,30.236957388740873,16,29.920739102576462" fill="#7ed0ec" strokewidth="0"/>
</g>
<g id="SVGRepo_tracerCarrier" stroke-linecap="round" stroke-linejoin="round"/>
<g id="SVGRepo_iconCarrier"> <g> <path style="fill:001726;" d="M207.5,247.5c0-22.056,17.944-40,40-40V0C111.028,0,0,111.028,0,247.5S111.028,495,247.5,495V287.5 C225.444,287.5,207.5,269.556,207.5,247.5z M137.5,287.5c-22.056,0-40-17.944-40-40s17.944-40,40-40s40,17.944,40,40 S159.556,287.5,137.5,287.5z"/> <path style="fill:##2488FF;" d="M247.5,0v207.5c22.056,0,40,17.944,40,40s-17.944,40-40,40V495C383.972,495,495,383.972,495,247.5 S383.972,0,247.5,0z M357.5,287.5c-22.056,0-40-17.944-40-40s17.944-40,40-40s40,17.944,40,40S379.556,287.5,357.5,287.5z"/> <path style="fill:#2488FF;" d="M317.5,247.5c0,22.056,17.944,40,40,40v-80C335.444,207.5,317.5,225.444,317.5,247.5z"/> <path style="fill:#005ECE;" d="M357.5,207.5v80c22.056,0,40-17.944,40-40S379.556,207.5,357.5,207.5z"/> <path style="fill:#2488FF;" d="M207.5,247.5c0,22.056,17.944,40,40,40v-80C225.444,207.5,207.5,225.444,207.5,247.5z"/> <path style="fill:#005ECE;" d="M287.5,247.5c0-22.056-17.944-40-40-40v80C269.556,287.5,287.5,269.556,287.5,247.5z"/> <path style="fill:#2488FF;" d="M97.5,247.5c0,22.056,17.944,40,40,40v-80C115.444,207.5,97.5,225.444,97.5,247.5z"/> <path style="fill:#005ECE;" d="M137.5,207.5v80c22.056,0,40-17.944,40-40S159.556,207.5,137.5,207.5z"/> </g> </g>
</svg>