<!DOCTYPE svg PUBLIC "-//W3C//DTD SVG 1.1//EN" "http://www.w3.org/Graphics/SVG/1.1/DTD/svg11.dtd">
<!-- Uploaded to: SVG Repo, www.svgrepo.com, Transformed by: SVG Repo Mixer Tools -->
<svg height="800px" width="800px" version="1.1" id="Layer_1" xmlns="http://www.w3.org/2000/svg" xmlns:xlink="http://www.w3.org/1999/xlink" viewBox="-48.91 -48.91 586.96 586.96" xml:space="preserve" fill="#000000">
<g id="SVGRepo_bgCarrier" stroke-width="0"/>
<g id="SVGRepo_tracerCarrier" stroke-linecap="round" stroke-linejoin="round" stroke="#0000" stroke-width="29.348519999999997"> <g> <path style="fill:#005ECE;" d="M489.142,460.858L364.614,336.329c-8.494,10.315-17.97,19.791-28.284,28.284l124.529,124.529 L489.142,460.858z"/> <path style="fill:#9BFBFF;" d="M205.743,371.485V110.066c-25.233,0.256-48.886,10.163-66.699,27.976l-28.284-28.284 c25.368-25.368,59.065-39.435,94.983-39.692V40C114.352,40,40,114.352,40,205.743S114.352,371.485,205.743,371.485z"/> <path style="fill:#46F8FF;" d="M206.744,70.054c36.293,0,70.381,14.101,95.984,39.704s39.704,59.691,39.704,95.984 s-14.101,70.381-39.704,95.984l-28.284-28.284c18.049-18.048,27.988-42.091,27.988-67.7s-9.939-49.652-27.988-67.7 c-18.048-18.049-42.091-27.988-67.7-27.988c-0.334,0-0.667,0.009-1.001,0.012v261.419c91.391,0,165.743-74.352,165.743-165.743 S297.133,40,205.743,40v30.066C206.077,70.064,206.409,70.054,206.744,70.054z"/> <path style="fill:#2488FF;" d="M364.614,336.329c29.272-35.548,46.872-81.05,46.872-130.587C411.485,92.296,319.189,0,205.743,0 S0,92.296,0,205.743s92.296,205.743,205.743,205.743c49.537,0,95.039-17.6,130.587-46.872 C346.644,356.12,356.12,346.644,364.614,336.329z M205.743,40c91.391,0,165.743,74.352,165.743,165.743 s-74.352,165.743-165.743,165.743S40,297.133,40,205.743S114.352,40,205.743,40z"/> <path style="fill:#FFFFFF;" d="M274.444,138.042c18.049,18.048,27.988,42.091,27.988,67.7s-9.939,49.652-27.988,67.7l28.284,28.284 c25.604-25.604,39.704-59.691,39.704-95.984s-14.101-70.381-39.704-95.984s-59.691-39.704-95.984-39.704 c-0.334,0-0.667,0.01-1.001,0.012c-35.918,0.257-69.616,14.324-94.983,39.692l28.284,28.284 c17.813-17.813,41.466-27.72,66.699-27.976c0.334-0.003,0.667-0.012,1.001-0.012C232.353,110.054,256.396,119.994,274.444,138.042z "/> </g> </g>
<g id="SVGRepo_iconCarrier"> <g> <path style="fill:#005ECE;" d="M489.142,460.858L364.614,336.329c-8.494,10.315-17.97,19.791-28.284,28.284l124.529,124.529 L489.142,460.858z"/> <path style="fill:#9BFBFF;" d="M205.743,371.485V110.066c-25.233,0.256-48.886,10.163-66.699,27.976l-28.284-28.284 c25.368-25.368,59.065-39.435,94.983-39.692V40C114.352,40,40,114.352,40,205.743S114.352,371.485,205.743,371.485z"/> <path style="fill:#46F8FF;" d="M206.744,70.054c36.293,0,70.381,14.101,95.984,39.704s39.704,59.691,39.704,95.984 s-14.101,70.381-39.704,95.984l-28.284-28.284c18.049-18.048,27.988-42.091,27.988-67.7s-9.939-49.652-27.988-67.7 c-18.048-18.049-42.091-27.988-67.7-27.988c-0.334,0-0.667,0.009-1.001,0.012v261.419c91.391,0,165.743-74.352,165.743-165.743 S297.133,40,205.743,40v30.066C206.077,70.064,206.409,70.054,206.744,70.054z"/> <path style="fill:#2488FF;" d="M364.614,336.329c29.272-35.548,46.872-81.05,46.872-130.587C411.485,92.296,319.189,0,205.743,0 S0,92.296,0,205.743s92.296,205.743,205.743,205.743c49.537,0,95.039-17.6,130.587-46.872 C346.644,356.12,356.12,346.644,364.614,336.329z M205.743,40c91.391,0,165.743,74.352,165.743,165.743 s-74.352,165.743-165.743,165.743S40,297.133,40,205.743S114.352,40,205.743,40z"/> <path style="fill:#FFFFFF;" d="M274.444,138.042c18.049,18.048,27.988,42.091,27.988,67.7s-9.939,49.652-27.988,67.7l28.284,28.284 c25.604-25.604,39.704-59.691,39.704-95.984s-14.101-70.381-39.704-95.984s-59.691-39.704-95.984-39.704 c-0.334,0-0.667,0.01-1.001,0.012c-35.918,0.257-69.616,14.324-94.983,39.692l28.284,28.284 c17.813-17.813,41.466-27.72,66.699-27.976c0.334-0.003,0.667-0.012,1.001-0.012C232.353,110.054,256.396,119.994,274.444,138.042z "/> </g> </g>
</svg>